<svg xmlns="http://www.w3.org/1999/xlink" id="svg11629" version="1.1" viewBox="253.13 354.89 517.74 58.22">
    <defs id="defs11633"/>
    <linearGradient spreadMethod="pad" y2="30%" x2="-10%" y1="120%" x1="30%" id="3d_gradient2-logo-06228558-2007-4944-97de-938f1291c593">
        <stop id="stop11610" stop-opacity="1" stop-color="#ffffff" offset="0%"/>
        <stop id="stop11612" stop-opacity="1" stop-color="#000000" offset="100%"/>
    </linearGradient>
    <linearGradient gradientTransform="rotate(-30)" spreadMethod="pad" y2="30%" x2="-10%" y1="120%" x1="30%" id="3d_gradient3-logo-06228558-2007-4944-97de-938f1291c593">
        <stop id="stop11615" stop-opacity="1" stop-color="#ffffff" offset="0%"/>
        <stop id="stop11617" stop-opacity="1" stop-color="#cccccc" offset="50%"/>
        <stop id="stop11619" stop-opacity="1" stop-color="#000000" offset="100%"/>
    </linearGradient>
    <g id="logo-group">
        <image id="container" x="272" y="144" width="480" height="480" style="display: none;" transform="translate(0 0)"/>
        <g id="logo-center" transform="translate(1.1368683772161603e-13 0)">
            <image id="icon_container" x="0" y="0" style="display: none;"/>
            <g id="slogan" style="font-style:normal;font-weight:400;font-size:32px;line-height:1;font-family:Montserrat;font-variant-ligatures:none;text-align:center;text-anchor:middle" transform="translate(0 0)"/>
            <g id="title" style="font-style:normal;font-weight:500;font-size:72px;line-height:1;font-family:'Raleway Medium Alt1';font-variant-ligatures:none;text-align:center;text-anchor:middle" transform="translate(0 0)">
                <path id="path11638" style="font-style:normal;font-weight:500;font-size:72px;line-height:1;font-family:'Raleway Medium Alt1';font-variant-ligatures:none;text-align:center;text-anchor:middle" d="M 302.54187,-51.12 V 0 h 6.48001 v -39.528 l 11.44799,20.448 3.45601,-5.904 -14.54401,-26.136 z m 43.92001,0 -18.57601,33.192 -3.384,5.904 1.584,2.808 h 3.67201 l 16.99199,-30.312 V 0 h 6.48 v -51.12 z" stroke-width="0" stroke-linejoin="miter" stroke-miterlimit="2" fill="#ffffff" stroke="#ffffff" transform="translate(0 311.06656) translate(253.13075999999995 44.22559999999999) scale(1.12) translate(-302.54187 51.12)"/>
                <path id="path11640" style="font-style:normal;font-weight:500;font-size:72px;line-height:1;font-family:'Raleway Medium Alt1';font-variant-ligatures:none;text-align:center;text-anchor:middle" d="m 371.88125,-45.36 h 27.576 v -5.76 h -34.056 v 15.84 h 6.48 z m -6.48,39.6 V 0 h 34.704 v -5.76 z m 6.48,-17.64 h 23.976 v -5.4 h -30.456 v 16.56 h 6.48 z" stroke-width="0" stroke-linejoin="miter" stroke-miterlimit="2" fill="#ffffff" stroke="#ffffff" transform="translate(0 311.06656) translate(329.13326559999996 44.22559999999999) scale(1.12) translate(-365.40125 51.12)"/>
                <path id="path11642" style="font-style:normal;font-weight:500;font-size:72px;line-height:1;font-family:'Raleway Medium Alt1';font-variant-ligatures:none;text-align:center;text-anchor:middle" d="m 439.019,-40.392 3.024,-5.256 c -2.16,-1.728 -4.68,-3.168 -7.416,-4.248 -2.808,-1.008 -5.904,-1.584 -9.36,-1.584 -2.664,0 -5.112,0.36 -7.344,1.008 -2.304,0.648 -4.248,1.584 -5.832,2.88 -1.656,1.296 -2.952,2.88 -3.816,4.752 -0.936,1.872 -1.368,4.032 -1.368,6.48 0,2.016 0.288,3.744 1.008,5.184 0.648,1.44 1.656,2.664 2.952,3.672 1.296,1.008 2.952,1.872 4.968,2.592 1.944,0.72 4.248,1.44 6.84,2.016 2.304,0.576 4.392,1.152 6.264,1.728 1.872,0.576 3.384,1.152 4.68,1.872 1.224,0.72 2.16,1.584 2.808,2.592 0.648,1.008 1.008,2.16 1.008,3.6 0,2.592 -1.008,4.536 -3.024,5.832 -2.016,1.296 -4.896,1.944 -8.496,1.944 -2.016,0 -3.888,-0.144 -5.688,-0.576 -1.8,-0.432 -3.456,-0.936 -5.04,-1.584 -1.584,-0.648 -2.952,-1.368 -4.176,-2.232 -1.224,-0.792 -2.232,-1.584 -2.952,-2.448 l -3.096,5.472 c 2.88,2.376 6.048,4.176 9.576,5.4 3.528,1.224 7.272,1.8 11.232,1.8 2.592,0 5.04,-0.216 7.344,-0.792 2.232,-0.576 4.176,-1.44 5.832,-2.592 1.656,-1.152 2.952,-2.664 3.96,-4.464 0.936,-1.8 1.44,-3.96 1.44,-6.408 0,-2.304 -0.432,-4.248 -1.224,-5.832 -0.792,-1.584 -1.944,-2.88 -3.456,-4.032 -1.512,-1.08 -3.312,-2.016 -5.472,-2.736 -2.16,-0.72 -4.536,-1.44 -7.128,-2.016 -2.304,-0.504 -4.32,-1.008 -5.976,-1.512 -1.728,-0.432 -3.096,-1.008 -4.248,-1.656 -1.152,-0.648 -1.944,-1.44 -2.448,-2.376 -0.576,-0.864 -0.792,-2.016 -0.792,-3.456 0,-2.592 0.864,-4.608 2.736,-6.12 1.872,-1.44 4.752,-2.232 8.784,-2.232 1.512,0 2.952,0.216 4.392,0.504 1.44,0.288 2.736,0.72 3.96,1.224 1.152,0.504 2.232,1.08 3.24,1.656 0.936,0.648 1.728,1.296 2.304,1.944 z" stroke-width="0" stroke-linejoin="miter" stroke-miterlimit="2" fill="#ffffff" stroke="#ffffff" transform="translate(0 311.06656) translate(379.04242559999994 43.822399999999995) scale(1.12) translate(-404.963 51.48)"/>
                <path id="path11644" style="font-style:normal;font-weight:500;font-size:72px;line-height:1;font-family:'Raleway Medium Alt1';font-variant-ligatures:none;text-align:center;text-anchor:middle" d="m 482.894,-40.392 3.024,-5.256 c -2.16,-1.728 -4.68,-3.168 -7.416,-4.248 -2.808,-1.008 -5.904,-1.584 -9.36,-1.584 -2.664,0 -5.112,0.36 -7.344,1.008 -2.304,0.648 -4.248,1.584 -5.832,2.88 -1.656,1.296 -2.952,2.88 -3.816,4.752 -0.936,1.872 -1.368,4.032 -1.368,6.48 0,2.016 0.288,3.744 1.008,5.184 0.648,1.44 1.656,2.664 2.952,3.672 1.296,1.008 2.952,1.872 4.968,2.592 1.944,0.72 4.248,1.44 6.84,2.016 2.304,0.576 4.392,1.152 6.264,1.728 1.872,0.576 3.384,1.152 4.68,1.872 1.224,0.72 2.16,1.584 2.808,2.592 0.648,1.008 1.008,2.16 1.008,3.6 0,2.592 -1.008,4.536 -3.024,5.832 -2.016,1.296 -4.896,1.944 -8.496,1.944 -2.016,0 -3.888,-0.144 -5.688,-0.576 -1.8,-0.432 -3.456,-0.936 -5.04,-1.584 -1.584,-0.648 -2.952,-1.368 -4.176,-2.232 -1.224,-0.792 -2.232,-1.584 -2.952,-2.448 l -3.096,5.472 c 2.88,2.376 6.048,4.176 9.576,5.4 3.528,1.224 7.272,1.8 11.232,1.8 2.592,0 5.04,-0.216 7.344,-0.792 2.232,-0.576 4.176,-1.44 5.832,-2.592 1.656,-1.152 2.952,-2.664 3.96,-4.464 0.936,-1.8 1.44,-3.96 1.44,-6.408 0,-2.304 -0.432,-4.248 -1.224,-5.832 -0.792,-1.584 -1.944,-2.88 -3.456,-4.032 -1.512,-1.08 -3.312,-2.016 -5.472,-2.736 -2.16,-0.72 -4.536,-1.44 -7.128,-2.016 -2.304,-0.504 -4.32,-1.008 -5.976,-1.512 -1.728,-0.432 -3.096,-1.008 -4.248,-1.656 -1.152,-0.648 -1.944,-1.44 -2.448,-2.376 -0.576,-0.864 -0.792,-2.016 -0.792,-3.456 0,-2.592 0.864,-4.608 2.736,-6.12 1.872,-1.44 4.752,-2.232 8.784,-2.232 1.512,0 2.952,0.216 4.392,0.504 1.44,0.288 2.736,0.72 3.96,1.224 1.152,0.504 2.232,1.08 3.24,1.656 0.936,0.648 1.728,1.296 2.304,1.944 z" stroke-width="0" stroke-linejoin="miter" stroke-miterlimit="2" fill="#ffffff" stroke="#ffffff" transform="translate(0 311.06656) translate(433.7824255999999 43.822399999999995) scale(1.12) translate(-448.838 51.48)"/>
                <path id="path11646" style="font-style:normal;font-weight:500;font-size:72px;line-height:1;font-family:'Raleway Medium Alt1';font-variant-ligatures:none;text-align:center;text-anchor:middle" d="m 503.225,-45.36 h 27.576 v -5.76 h -34.056 v 15.84 h 6.48 z m -6.48,39.6 V 0 h 34.704 v -5.76 z m 6.48,-17.64 h 23.976 v -5.4 h -30.456 v 16.56 h 6.48 z" stroke-width="0" stroke-linejoin="miter" stroke-miterlimit="2" fill="#ffffff" stroke="#ffffff" transform="translate(0 311.06656) translate(493.0382655999998 44.22559999999999) scale(1.12) translate(-496.745 51.12)"/>
                <path id="path11648" style="font-style:normal;font-weight:500;font-size:72px;line-height:1;font-family:'Raleway Medium Alt1';font-variant-ligatures:none;text-align:center;text-anchor:middle" d="m 543.67438,-32.76 c 0.71999,-2.376 1.87199,-4.536 3.38399,-6.408 1.44,-1.872 3.312,-3.456 5.47201,-4.608 2.16,-1.152 4.67999,-1.8 7.55999,-1.8 1.29601,0 2.592,0.144 3.96001,0.432 1.29599,0.288 2.592,0.792 3.88799,1.44 1.224,0.72 2.44801,1.584 3.528,2.664 1.08,1.152 2.01601,2.52 2.808,4.104 l 5.11201,-3.312 c -1.58401,-3.312 -4.03201,-5.976 -7.27201,-8.064 -3.312,-2.016 -7.2,-3.096 -11.736,-3.096 -3.888,0 -7.272,0.792 -10.296,2.232 -3.096,1.512 -5.616,3.456 -7.704,5.904 -2.08799,2.448 -3.672,5.184 -4.75199,8.208 -0.792,2.16 -1.22401,4.32 -1.44001,6.408 h 6.55201 c 0.216,-1.368 0.504,-2.736 0.936,-4.104 z m 31.24799,18.36 c -0.72,1.584 -1.65599,2.952 -2.808,4.104 -1.152,1.152 -2.37599,2.088 -3.6,2.808 -1.36799,0.72 -2.664,1.296 -4.10399,1.584 -1.44001,0.36 -2.808,0.504 -4.10401,0.504 -2.59199,0 -4.89599,-0.504 -7.056,-1.656 -2.16,-1.08 -4.03199,-2.592 -5.616,-4.464 -1.65599,-1.872 -2.88,-3.96 -3.744,-6.408 -0.57599,-1.512 -0.93599,-3.024 -1.15199,-4.68 h -6.55201 c 0.288,2.16 0.79201,4.248 1.584,6.336 1.152,3.168 2.80801,5.976 4.96801,8.424 2.15999,2.448 4.67999,4.464 7.63199,5.976 2.88,1.584 6.12,2.304 9.648,2.304 1.944,0 3.96001,-0.216 6.048,-0.792 2.016,-0.504 3.96001,-1.224 5.832,-2.304 1.87201,-0.936 3.528,-2.232 4.968,-3.672 1.44,-1.44 2.59201,-3.168 3.456,-5.112 z" stroke-width="0" stroke-linejoin="miter" stroke-miterlimit="2" fill="#ffffff" stroke="#ffffff" transform="translate(0 311.06656) translate(542.8125999999999 43.90303999999999) scale(1.12) translate(-536.18637 51.408)"/>
                <path id="path11650" style="font-style:normal;font-weight:500;font-size:72px;line-height:1;font-family:'Raleway Medium Alt1';font-variant-ligatures:none;text-align:center;text-anchor:middle" d="m 597.4325,-11.592 c -1.152,-1.8 -2.016,-3.888 -2.52,-6.264 -0.504,-2.376 -0.72,-4.824 -0.72,-7.416 V -51.12 h -6.48 v 25.848 c 0,3.312 0.36,6.48 1.08,9.576 0.72,3.096 1.944,5.832 3.672,8.208 1.728,2.376 3.96,4.32 6.768,5.688 1.944,1.08 4.32,1.728 6.984,2.016 v -5.904 c -1.584,-0.288 -2.952,-0.792 -4.104,-1.44 -1.944,-1.152 -3.528,-2.592 -4.68,-4.464 z m 27.36,-39.528 v 25.848 c 0,2.52 -0.288,4.896 -0.72,7.272 -0.504,2.376 -1.368,4.464 -2.52,6.336 -1.152,1.872 -2.736,3.312 -4.68,4.464 -1.152,0.72 -2.52,1.152 -4.032,1.44 v 5.976 c 2.52,-0.288 4.752,-0.936 6.696,-1.872 2.736,-1.368 5.04,-3.24 6.768,-5.616 1.728,-2.304 2.952,-5.04 3.744,-8.136 0.792,-3.096 1.224,-6.408 1.224,-9.864 V -51.12 Z" stroke-width="0" stroke-linejoin="miter" stroke-miterlimit="2" fill="#ffffff" stroke="#ffffff" transform="translate(0 311.06656) translate(606.1218655999999 44.22559999999999) scale(1.12) translate(-587.7125 51.12)"/>
                <path id="path11652" style="font-style:normal;font-weight:500;font-size:72px;line-height:1;font-family:'Raleway Medium Alt1';font-variant-ligatures:none;text-align:center;text-anchor:middle" d="m 669.49437,-19.584 c 1.58401,-0.36 3.096,-1.08 4.39201,-2.088 1.29599,-0.936 2.448,-2.088 3.384,-3.456 0.93599,-1.296 1.65599,-2.808 2.16,-4.464 0.504,-1.656 0.792,-3.384 0.792,-5.184 0,-2.016 -0.432,-3.96 -1.152,-5.904 -0.79201,-1.944 -1.872,-3.672 -3.24001,-5.256 -1.368,-1.584 -3.024,-2.808 -4.89599,-3.744 -1.87201,-0.936 -3.96001,-1.44 -6.192,-1.44 H 642.85437 V 0 h 6.48001 v -18.36 h 6.48 l -3.6,-5.76 h -2.88 v -21.24 h 15.048 c 1.22399,0 2.37599,0.288 3.528,0.864 1.15199,0.576 2.08799,1.296 2.952,2.304 0.86399,1.008 1.51199,2.088 2.01599,3.384 0.50401,1.296 0.79201,2.664 0.79201,4.032 0,1.44 -0.216,2.736 -0.64801,4.032 -0.504,1.368 -1.08,2.448 -1.79999,3.456 -0.792,1.008 -1.72801,1.8 -2.80801,2.304 -1.07999,0.576 -2.304,0.864 -3.59999,0.864 h -5.688 l 3.74399,5.76 11.664,18.36 h 7.344 z" stroke-width="0" stroke-linejoin="miter" stroke-miterlimit="2" fill="#ffffff" stroke="#ffffff" transform="translate(0 311.06656) translate(673.4807599999998 44.22559999999999) scale(1.12) translate(-642.85437 51.12)"/>
                <path id="path11654" style="font-style:normal;font-weight:500;font-size:72px;line-height:1;font-family:'Raleway Medium Alt1';font-variant-ligatures:none;text-align:center;text-anchor:middle" d="m 696.58438,-45.36 h 27.576 v -5.76 h -34.05601 v 15.84 h 6.48001 z m -6.48001,39.6 V 0 h 34.704 v -5.76 z m 6.48001,-17.64 h 23.976 v -5.4 h -30.45601 v 16.56 h 6.48001 z" stroke-width="0" stroke-linejoin="miter" stroke-miterlimit="2" fill="#ffffff" stroke="#ffffff" transform="translate(0 311.06656) translate(732.0007599999998 44.22559999999999) scale(1.12) translate(-690.10437 51.12)"/>
            </g>
            <image id="icon" x="0" y="0" style="display: none;"/>
        </g>
    </g>
</svg>