<svg xmlns="http://www.w3.org/2000/svg" viewBox="253.13 354.89 517.74 58.22">
    <g style="font-style:normal;font-weight:500;font-size:72px;line-height:1;font-family:'Raleway Medium Alt1';font-variant-ligatures:none;text-align:center;text-anchor:middle" fill="#000">
        <path style="font-style:normal;font-weight:500;font-size:72px;line-height:1;font-family:'Raleway Medium Alt1';font-variant-ligatures:none;text-align:center;text-anchor:middle" d="M302.542-51.12V0h6.48v-39.528L320.47-19.08l3.456-5.904-14.544-26.136zm43.92 0-18.576 33.192-3.384 5.904 1.584 2.808h3.672l16.992-30.312V0h6.48v-51.12z" transform="matrix(1.12 0 0 1.12 -85.716 412.547)"></path>
        <path style="font-style:normal;font-weight:500;font-size:72px;line-height:1;font-family:'Raleway Medium Alt1';font-variant-ligatures:none;text-align:center;text-anchor:middle" d="M371.881-45.36h27.576v-5.76h-34.056v15.84h6.48zm-6.48 39.6V0h34.704v-5.76zm6.48-17.64h23.976v-5.4h-30.456v16.56h6.48z" transform="matrix(1.12 0 0 1.12 -80.116 412.547)"></path>
        <path style="font-style:normal;font-weight:500;font-size:72px;line-height:1;font-family:'Raleway Medium Alt1';font-variant-ligatures:none;text-align:center;text-anchor:middle" d="m439.019-40.392 3.024-5.256c-2.16-1.728-4.68-3.168-7.416-4.248-2.808-1.008-5.904-1.584-9.36-1.584-2.664 0-5.112.36-7.344 1.008-2.304.648-4.248 1.584-5.832 2.88-1.656 1.296-2.952 2.88-3.816 4.752-.936 1.872-1.368 4.032-1.368 6.48 0 2.016.288 3.744 1.008 5.184.648 1.44 1.656 2.664 2.952 3.672s2.952 1.872 4.968 2.592c1.944.72 4.248 1.44 6.84 2.016 2.304.576 4.392 1.152 6.264 1.728 1.872.576 3.384 1.152 4.68 1.872 1.224.72 2.16 1.584 2.808 2.592.648 1.008 1.008 2.16 1.008 3.6 0 2.592-1.008 4.536-3.024 5.832-2.016 1.296-4.896 1.944-8.496 1.944-2.016 0-3.888-.144-5.688-.576-1.8-.432-3.456-.936-5.04-1.584s-2.952-1.368-4.176-2.232c-1.224-.792-2.232-1.584-2.952-2.448l-3.096 5.472c2.88 2.376 6.048 4.176 9.576 5.4 3.528 1.224 7.272 1.8 11.232 1.8 2.592 0 5.04-.216 7.344-.792 2.232-.576 4.176-1.44 5.832-2.592 1.656-1.152 2.952-2.664 3.96-4.464.936-1.8 1.44-3.96 1.44-6.408 0-2.304-.432-4.248-1.224-5.832-.792-1.584-1.944-2.88-3.456-4.032-1.512-1.08-3.312-2.016-5.472-2.736-2.16-.72-4.536-1.44-7.128-2.016-2.304-.504-4.32-1.008-5.976-1.512-1.728-.432-3.096-1.008-4.248-1.656-1.152-.648-1.944-1.44-2.448-2.376-.576-.864-.792-2.016-.792-3.456 0-2.592.864-4.608 2.736-6.12 1.872-1.44 4.752-2.232 8.784-2.232 1.512 0 2.952.216 4.392.504 1.44.288 2.736.72 3.96 1.224a34.052 34.052 0 0 1 3.24 1.656c.936.648 1.728 1.296 2.304 1.944z" transform="matrix(1.12 0 0 1.12 -74.516 412.547)"></path>
        <path style="font-style:normal;font-weight:500;font-size:72px;line-height:1;font-family:'Raleway Medium Alt1';font-variant-ligatures:none;text-align:center;text-anchor:middle" d="m482.894-40.392 3.024-5.256c-2.16-1.728-4.68-3.168-7.416-4.248-2.808-1.008-5.904-1.584-9.36-1.584-2.664 0-5.112.36-7.344 1.008-2.304.648-4.248 1.584-5.832 2.88-1.656 1.296-2.952 2.88-3.816 4.752-.936 1.872-1.368 4.032-1.368 6.48 0 2.016.288 3.744 1.008 5.184.648 1.44 1.656 2.664 2.952 3.672s2.952 1.872 4.968 2.592c1.944.72 4.248 1.44 6.84 2.016 2.304.576 4.392 1.152 6.264 1.728 1.872.576 3.384 1.152 4.68 1.872 1.224.72 2.16 1.584 2.808 2.592.648 1.008 1.008 2.16 1.008 3.6 0 2.592-1.008 4.536-3.024 5.832-2.016 1.296-4.896 1.944-8.496 1.944-2.016 0-3.888-.144-5.688-.576-1.8-.432-3.456-.936-5.04-1.584s-2.952-1.368-4.176-2.232c-1.224-.792-2.232-1.584-2.952-2.448l-3.096 5.472c2.88 2.376 6.048 4.176 9.576 5.4 3.528 1.224 7.272 1.8 11.232 1.8 2.592 0 5.04-.216 7.344-.792 2.232-.576 4.176-1.44 5.832-2.592 1.656-1.152 2.952-2.664 3.96-4.464.936-1.8 1.44-3.96 1.44-6.408 0-2.304-.432-4.248-1.224-5.832-.792-1.584-1.944-2.88-3.456-4.032-1.512-1.08-3.312-2.016-5.472-2.736-2.16-.72-4.536-1.44-7.128-2.016-2.304-.504-4.32-1.008-5.976-1.512-1.728-.432-3.096-1.008-4.248-1.656-1.152-.648-1.944-1.44-2.448-2.376-.576-.864-.792-2.016-.792-3.456 0-2.592.864-4.608 2.736-6.12 1.872-1.44 4.752-2.232 8.784-2.232 1.512 0 2.952.216 4.392.504 1.44.288 2.736.72 3.96 1.224a34.052 34.052 0 0 1 3.24 1.656c.936.648 1.728 1.296 2.304 1.944z" transform="matrix(1.12 0 0 1.12 -68.916 412.547)"></path>
        <path style="font-style:normal;font-weight:500;font-size:72px;line-height:1;font-family:'Raleway Medium Alt1';font-variant-ligatures:none;text-align:center;text-anchor:middle" d="M503.225-45.36h27.576v-5.76h-34.056v15.84h6.48zm-6.48 39.6V0h34.704v-5.76zm6.48-17.64h23.976v-5.4h-30.456v16.56h6.48z" transform="matrix(1.12 0 0 1.12 -63.316 412.547)"></path>
        <path style="font-style:normal;font-weight:500;font-size:72px;line-height:1;font-family:'Raleway Medium Alt1';font-variant-ligatures:none;text-align:center;text-anchor:middle" d="M543.674-32.76a18.882 18.882 0 0 1 3.384-6.408 17.004 17.004 0 0 1 5.472-4.608c2.16-1.152 4.68-1.8 7.56-1.8 1.296 0 2.592.144 3.96.432 1.296.288 2.592.792 3.888 1.44 1.224.72 2.448 1.584 3.528 2.664 1.08 1.152 2.016 2.52 2.808 4.104l5.112-3.312c-1.584-3.312-4.032-5.976-7.272-8.064-3.312-2.016-7.2-3.096-11.736-3.096-3.888 0-7.272.792-10.296 2.232-3.096 1.512-5.616 3.456-7.704 5.904a26.045 26.045 0 0 0-4.752 8.208c-.792 2.16-1.224 4.32-1.44 6.408h6.552c.216-1.368.504-2.736.936-4.104zm31.248 18.36c-.72 1.584-1.656 2.952-2.808 4.104a18.102 18.102 0 0 1-3.6 2.808c-1.368.72-2.664 1.296-4.104 1.584-1.44.36-2.808.504-4.104.504-2.592 0-4.896-.504-7.056-1.656-2.16-1.08-4.032-2.592-5.616-4.464-1.656-1.872-2.88-3.96-3.744-6.408-.576-1.512-.936-3.024-1.152-4.68h-6.552a28.17 28.17 0 0 0 1.584 6.336c1.152 3.168 2.808 5.976 4.968 8.424 2.16 2.448 4.68 4.464 7.632 5.976 2.88 1.584 6.12 2.304 9.648 2.304 1.944 0 3.96-.216 6.048-.792 2.016-.504 3.96-1.224 5.832-2.304 1.872-.936 3.528-2.232 4.968-3.672s2.592-3.168 3.456-5.112z" transform="matrix(1.12 0 0 1.12 -57.716 412.547)"></path>
        <path style="font-style:normal;font-weight:500;font-size:72px;line-height:1;font-family:'Raleway Medium Alt1';font-variant-ligatures:none;text-align:center;text-anchor:middle" d="M597.433-11.592c-1.152-1.8-2.016-3.888-2.52-6.264-.504-2.376-.72-4.824-.72-7.416V-51.12h-6.48v25.848c0 3.312.36 6.48 1.08 9.576.72 3.096 1.944 5.832 3.672 8.208 1.728 2.376 3.96 4.32 6.768 5.688 1.944 1.08 4.32 1.728 6.984 2.016v-5.904c-1.584-.288-2.952-.792-4.104-1.44-1.944-1.152-3.528-2.592-4.68-4.464zm27.36-39.528v25.848c0 2.52-.288 4.896-.72 7.272a19.794 19.794 0 0 1-2.52 6.336c-1.152 1.872-2.736 3.312-4.68 4.464-1.152.72-2.52 1.152-4.032 1.44V.216c2.52-.288 4.752-.936 6.696-1.872 2.736-1.368 5.04-3.24 6.768-5.616 1.728-2.304 2.952-5.04 3.744-8.136a39.803 39.803 0 0 0 1.224-9.864V-51.12Z" transform="matrix(1.12 0 0 1.12 -52.116 412.547)"></path>
        <path style="font-style:normal;font-weight:500;font-size:72px;line-height:1;font-family:'Raleway Medium Alt1';font-variant-ligatures:none;text-align:center;text-anchor:middle" d="M669.494-19.584a11.253 11.253 0 0 0 4.392-2.088 14.043 14.043 0 0 0 3.384-3.456c.936-1.296 1.656-2.808 2.16-4.464.504-1.656.792-3.384.792-5.184 0-2.016-.432-3.96-1.152-5.904a18.836 18.836 0 0 0-3.24-5.256c-1.368-1.584-3.024-2.808-4.896-3.744-1.872-.936-3.96-1.44-6.192-1.44h-21.888V0h6.48v-18.36h6.48l-3.6-5.76h-2.88v-21.24h15.048c1.224 0 2.376.288 3.528.864a9.125 9.125 0 0 1 2.952 2.304 11.41 11.41 0 0 1 2.016 3.384c.504 1.296.792 2.664.792 4.032 0 1.44-.216 2.736-.648 4.032-.504 1.368-1.08 2.448-1.8 3.456-.792 1.008-1.728 1.8-2.808 2.304-1.08.576-2.304.864-3.6.864h-5.688l3.744 5.76L674.534 0h7.344z" transform="matrix(1.12 0 0 1.12 -46.516 412.547)"></path>
        <path style="font-style:normal;font-weight:500;font-size:72px;line-height:1;font-family:'Raleway Medium Alt1';font-variant-ligatures:none;text-align:center;text-anchor:middle" d="M696.584-45.36h27.576v-5.76h-34.056v15.84h6.48zm-6.48 39.6V0h34.704v-5.76zm6.48-17.64h23.976v-5.4h-30.456v16.56h6.48z" transform="matrix(1.12 0 0 1.12 -40.916 412.547)"></path>
    </g>
</svg>